<svg width="16" height="20" viewBox="0 0 16 20" fill="none" xmlns="http://www.w3.org/2000/svg">
<path fill-rule="evenodd" clip-rule="evenodd" d="M14 10C14 6.68629 11.3137 4 8 4C4.68629 4 2 6.68629 2 10C2 13.3137 4.68629 16 8 16C11.3137 16 14 13.3137 14 10ZM8 17C4.13401 17 1 13.866 1 10C1 6.13401 4.13401 3 8 3C11.866 3 15 6.13401 15 10C15 13.866 11.866 17 8 17ZM7.5 10.54V7C7.5 6.72386 7.72386 6.5 8 6.5C8.27614 6.5 8.5 6.72386 8.5 7V10.54C8.5 10.8162 8.27614 11.04 8 11.04C7.72386 11.04 7.5 10.8162 7.5 10.54ZM7.5 12.7492V12.7502C7.5 13.0263 7.72386 13.2502 8 13.2502C8.27614 13.2502 8.5 13.0263 8.5 12.7502V12.7492C8.5 12.4731 8.27614 12.2492 8 12.2492C7.72386 12.2492 7.5 12.4731 7.5 12.7492Z" fill="#C10D0D"/>
</svg>
