<svg width="16" height="16" viewBox="0 0 16 16" fill="none" xmlns="http://www.w3.org/2000/svg">
<path d="M8.00391 1.00024C11.8699 1.00024 15.0039 4.13421 15.0039 8.00024C15.0038 11.8662 11.8699 15.0002 8.00391 15.0002C4.138 15.0002 1.00406 11.8661 1.00391 8.00024C1.00391 4.13423 4.13791 1.00029 8.00391 1.00024ZM11.335 5.54517C11.135 5.35504 10.8183 5.363 10.6279 5.56274L6.77539 9.60767L5.03027 7.77563C4.83989 7.57587 4.52318 7.56789 4.32324 7.75806C4.12336 7.94842 4.11546 8.26511 4.30566 8.46509L6.41309 10.678C6.50746 10.7771 6.63855 10.8333 6.77539 10.8333C6.91223 10.8332 7.04333 10.7771 7.1377 10.678L11.3525 6.2522C11.5427 6.05221 11.5348 5.73551 11.335 5.54517Z" fill="#099A52"/>
</svg>
